HIERARCHY
ROOT pelvis
{
  OFFSET 0 100 0
  CHANNELS 6 Xposition Yposition Zposition Zrotation Xrotation Yrotation
  JOINT pelvis_right_femur
  {
    OFFSET -10.78128 -3.44521 -0.5502486
    CHANNELS 3 Zrotation Xrotation Yrotation
    JOINT right_femur_tibia
    {
      OFFSET -0.8047443 -44.0398 -0.1307829
      CHANNELS 3 Zrotation Xrotation Yrotation
      JOINT right_tibia_foot
      {
        OFFSET 3.006224 -47.83518 -5
        CHANNELS 3 Zrotation Xrotation Yrotation
        End Site
        {
          OFFSET 0 -5 15
        }
      }
    }
  }
  JOINT pelvis_left_femur
  {
    OFFSET 10.78128 -3.44521 -0.5502486
    CHANNELS 3 Zrotation Xrotation Yrotation
    JOINT left_femur_tibia
    {
      OFFSET 0.8047443 -44.0398 -0.1307829
      CHANNELS 3 Zrotation Xrotation Yrotation
      JOINT left_tibia_foot
      {
        OFFSET -4.370144 -48.10324 -4.275266
        CHANNELS 3 Zrotation Xrotation Yrotation
        End Site
        {
          OFFSET 0 -5 15
        }
      }
    }
  }
  JOINT pelvis_spine1
  {
    OFFSET 0 6.468898 -3.129235
    CHANNELS 3 Zrotation Xrotation Yrotation
    JOINT spine1
    {
      OFFSET 0 23.15396 4.99043
      CHANNELS 3 Zrotation Xrotation Yrotation
      JOINT spine2
      {
        OFFSET 0 20.79997 -5.064912
        CHANNELS 3 Zrotation Xrotation Yrotation
        JOINT neck
        {
          OFFSET 0 14.38658 9.616178
          CHANNELS 3 Zrotation Xrotation Yrotation
          End Site
          {
            OFFSET 0 20 0
          }
        }
      }
      JOINT right_manubrium
      {
        OFFSET -5.722621 16.35077 3.967754
        CHANNELS 3 Zrotation Xrotation Yrotation
        JOINT right_clavicle
        {
          OFFSET -13.16364 1.694482 -4.693211
          CHANNELS 3 Zrotation Xrotation Yrotation
          JOINT right_humerus
          {
            OFFSET -28.5034 -0.3100689 -2.792744
            CHANNELS 3 Zrotation Xrotation Yrotation
            JOINT right_radius
            {
              OFFSET -25.15693 0.02248979 -1.271978
              CHANNELS 3 Zrotation Xrotation Yrotation
              End Site
              {
                OFFSET -15 0 0
              }
            }
          }
        }
      }
      JOINT left_manubrium
      {
        OFFSET 5.722621 16.35077 3.967754
        CHANNELS 3 Zrotation Xrotation Yrotation
        JOINT left_clavicle
        {
          OFFSET 13.16364 1.694482 -4.693211
          CHANNELS 3 Zrotation Xrotation Yrotation
          JOINT left_humerus
          {
            OFFSET 29.39168 -1.063119 -2.237045
            CHANNELS 3 Zrotation Xrotation Yrotation
            JOINT left_radius
            {
              OFFSET 24.59957 -0.9528479 0.9047498
              CHANNELS 3 Zrotation Xrotation Yrotation
              End Site
              {
                OFFSET 15 -0 -0
              }
            }
          }
        }
      }
    }
  }
}
MOTION
Frames: 7
Frame Time: 0.0416666666667
0 103.5113 0 -0.04686065 -0.2948694 -0.02715333 5.107245 -17.59698 11.29854 -0 40.42349 -0 -4.837637 -17.65633 -4.126586 -6.582528 10.89435 -23.51922 -0 5.349919 -0 9.021756 -18.02716 28.31364 -3.335817 -3.952351 4.548713 3.146997 9.396066 -8.185125 1.55132 22.30688 6.316516 1.72823 -26.94509 10.60506 5.816244 -20.36656 11.59464 86.14274 34.52371 -18.78026 -0 0 15.74977 -5.694747 8.791751 4.066623 5.744715 -19.13663 0.1668717 -94.7864 26.19436 22.87418 0 0 -13.54097 10.88283 19.42713 1.613631
0.2509524 103.9892 1.389489 -0.1297951 -0.287995 -0.0380836 5.172442 -18.04445 11.02839 -0 39.91201 -0 -4.909665 -17.18195 -4.090025 -6.471963 11.07711 -23.30002 -0 5.281864 -0 8.482025 -18.41216 27.90906 -3.253842 -3.895922 4.478299 3.121656 9.409618 -8.209085 1.521316 22.25191 6.381823 1.80716 -26.8864 10.55563 5.760871 -20.29804 11.59548 86.21747 34.25303 -18.9412 -0 0 15.6922 -5.99917 8.872711 4.113082 5.866727 -19.36381 0.1008411 -94.74085 26.22434 22.77122 0 0 -13.78909 10.61772 19.54653 1.872779
0.5376366 103.9586 3.895786 -0.9922867 1.334936 0.1941432 6.384487 -27.11602 8.239632 -0 29.24181 -0 -5.954063 -10.61103 -3.093129 -5.600456 12.76104 -20.08469 -0 5.394081 -0 5.689842 -21.38822 23.70253 -2.415292 -2.907131 4.096166 2.931438 9.782082 -8.439908 1.490965 20.72016 7.086847 3.154902 -26.29742 9.979615 5.438945 -19.30629 11.4865 86.95058 33.3789 -20.80493 -0 0 14.77383 -8.757183 9.743573 4.705279 7.605791 -22.02802 -0.7499628 -92.39386 24.13521 19.73831 0 0 -18.62449 10.85091 17.58574 1.703153
0.8250047 103.7726 6.817627 -1.448725 2.80494 0.5514019 7.641989 -31.18567 8.461952 -0 24.79971 -0 -6.10972 -8.941144 -2.742055 -5.424093 13.32306 -19.37686 -0 6.371036 -0 4.815524 -22.33323 22.34026 -2.125149 -2.479528 4.106302 3.024253 9.636226 -8.572916 1.56198 19.91523 7.361412 3.683082 -26.54258 9.983138 5.701873 -18.76163 11.33333 87.05086 34.53432 -21.63012 -0 0 14.38932 -8.053522 9.930122 4.372726 8.243093 -22.57207 -0.5661677 -92.05473 24.36078 19.29754 0 0 -20.88161 10.66613 16.40961 2.369954
1.139023 103.581 10.05037 -1.718074 4.478163 1.026804 9.221591 -34.015 9.934009 -0 22.30608 -0 -5.765128 -8.148188 -2.298041 -5.570245 13.50345 -19.43542 -0 7.490015 -0 5.07919 -22.40751 21.99083 -2.117775 -2.195169 4.28336 3.272612 9.483154 -8.690636 1.608255 19.13896 7.541148 4.041154 -27.17611 10.12342 6.275626 -18.37882 11.28555 86.96329 36.7146 -22.19291 -0 0 14.14007 -5.969645 9.691085 3.843221 8.580455 -22.37972 -0.08328487 -91.98743 24.75569 19.48113 0 0 -22.84981 10.97717 14.63453 2.537688
1.488575 103.3375 13.59757 -1.805373 5.360435 1.557365 10.09716 -35.36422 10.66176 -0 20.81411 -0 -5.483338 -7.125451 -1.69735 -5.75514 13.71307 -19.42385 -0 8.506138 -0 5.12248 -22.15294 21.62887 -2.151312 -1.868135 4.317513 3.424456 9.428623 -8.678007 1.59008 18.75151 7.70047 4.258855 -27.59339 10.22456 6.492123 -18.06927 11.28154 87.0855 38.04486 -22.48346 -0 0 13.59898 -4.555665 9.320599 3.646085 8.694898 -22.05621 0.09222226 -91.61257 24.90937 19.29906 0 0 -24.49792 11.40698 13.02407 2.22835
1.874205 103.0203 17.47836 -1.793018 5.506211 2.104853 10.1634 -35.78676 10.23228 -0 19.49332 -0 -5.45211 -5.868392 -1.048441 -5.850383 14.00177 -19.01802 -0 9.566005 -0 4.693833 -21.85616 20.92156 -2.130802 -1.5329 4.188153 3.471521 9.463064 -8.612438 1.500691 18.67702 7.848817 4.400901 -27.65889 10.19071 6.357848 -17.76699 11.30121 87.35514 38.3094 -22.62742 -0 0 12.85766 -4.296704 9.051316 3.756022 8.727137 -21.91571 -0.06679121 -90.88914 24.55423 18.54027 0 0 -25.67661 11.91474 11.86301 1.391461
